Coordinates
version=1
nRows=10
nColumns=34
inDegrees=yes

Units are S.I. units (second, meters, Newtons, ...)
Angles are in degrees.

endheader
time	pelvis_tilt	pelvis_list	pelvis_rotation	pelvis_tx	pelvis_ty	pelvis_tz	hip_flexion_r	hip_adduction_r	hip_rotation_r	knee_angle_r	ankle_angle_r	subtalar_angle_r	mtp_angle_r	hip_flexion_l	hip_adduction_l	hip_rotation_l	knee_angle_l	socket_flexion	socket_adduction	socket_rotation	socket_tx	socket_ty	socket_tz	pros_ankle_rx	pros_ankle_ry	pros_ankle_rz	pros_ankle_tx	pros_ankle_ty	pros_ankle_tz	foot_flex	lumbar_extension	lumbar_bending	lumbar_rotation
      0.00000000	     -4.75146821	     -8.41550758	     -7.02200666	     -0.75848034	      1.03848434	      0.32326912	    -17.23002453	      9.33702963	     -4.48578522	     -3.41239829	     -0.50419283	     26.15421170	     36.83132909	     23.25956239	     -7.84214415	     -0.41112652	      3.90820868	      3.46110870	     -0.61432107	     -1.76641768	      0.00000000	     -0.00006516	      0.00000000	      0.00000000	      0.00000000	      0.00000000	      0.00000000	      0.00000000	      0.00000000	      0.23891656	    -15.09474821	      3.52926349	      7.93551757
      0.00416667	     -4.73946389	     -8.44554861	     -7.12727535	     -0.75318695	      1.03740389	      0.32363118	    -17.44146341	      9.28825668	     -4.41711061	     -3.60886688	     -0.53605181	     26.18296106	     36.85275843	     23.26916627	     -7.84040135	     -0.35713284	      3.83247581	      3.49784075	     -0.59259139	     -1.81295636	      0.00000000	     -0.00034619	      0.00000000	      0.00000000	      0.00000000	      0.00000000	      0.00000000	      0.00000000	      0.00000000	     -0.16714772	    -15.04856974	      3.48076712	      7.96486940
      0.00833333	     -4.74308575	     -8.48287744	     -7.20179642	     -0.74769713	      1.03624784	      0.32387672	    -17.64597713	      9.24918359	     -4.34850232	     -3.80013164	     -0.56399741	     26.21295517	     36.87403161	     23.32083420	     -7.82272459	     -0.32099978	      3.73771804	      3.59660037	     -0.56373785	     -1.86339172	      0.00000000	     -0.00062818	      0.00000000	      0.00000000	      0.00000000	      0.00000000	      0.00000000	      0.00000000	      0.00000000	     -0.48185520	    -15.02128526	      3.44586610	      7.99836895
      0.01250000	     -4.65205778	     -8.56621733	     -7.42638697	     -0.74229748	      1.03527391	      0.32427855	    -17.84008537	      9.17576660	     -4.21823288	     -4.22878636	     -0.51863029	     26.45905284	     37.17894040	     23.25992440	     -7.91043336	     -0.18859527	      3.53204658	      3.55497119	     -0.54760517	     -2.11778857	      0.00000000	     -0.00113426	      0.00000000	      0.00000000	      0.00000000	      0.00000000	      0.00000000	      0.00000000	      0.00000000	     -1.01902681	    -15.18983513	      3.35459623	      8.46152249
      0.01666667	     -4.65066450	     -8.59990005	     -7.54234438	     -0.73640552	      1.03407298	      0.32464265	    -18.04317153	      9.11266260	     -4.15310929	     -4.47505180	     -0.56523709	     26.50943771	     37.24714809	     23.26858593	     -7.91844257	     -0.11695567	      3.41988705	      3.63297774	     -0.52817565	     -2.16029842	      0.00000000	     -0.00161815	      0.00000000	      0.00000000	      0.00000000	      0.00000000	      0.00000000	      0.00000000	      0.00000000	     -1.49135280	    -15.13126845	      3.30357124	      8.49792089
      0.02083333	     -4.63775728	     -8.64225857	     -7.68794034	     -0.73044788	      1.03289419	      0.32501357	    -18.22882474	      9.03991561	     -4.06707541	     -4.77646775	     -0.62206716	     26.59423801	     37.35626304	     23.27100887	     -7.94099800	     -0.04198707	      3.25847739	      3.70933554	     -0.51534732	     -2.27114551	      0.00000000	     -0.00217171	      0.00000000	      0.00000000	      0.00000000	      0.00000000	      0.00000000	      0.00000000	      0.00000000	     -1.97240473	    -15.11834409	      3.23463752	      8.58981246
      0.02500000	     -4.62198605	     -8.68504093	     -7.81199928	     -0.72440109	      1.03170286	      0.32537017	    -18.41104500	      8.97298131	     -3.97291126	     -5.09699723	     -0.68651717	     26.67734879	     37.46489419	     23.27155724	     -7.96384712	      0.05149104	      3.08152189	      3.81260313	     -0.50632224	     -2.35111084	      0.00000000	     -0.00280824	      0.00000000	      0.00000000	      0.00000000	      0.00000000	      0.00000000	      0.00000000	      0.00000000	     -2.44320244	    -15.10056602	      3.16387589	      8.68705386
      0.02916667	     -4.60720593	     -8.72301430	     -7.91808460	     -0.71827122	      1.03051467	      0.32571811	    -18.59017315	      8.90894253	     -3.88187178	     -5.41985090	     -0.75810899	     26.74928085	     37.56180913	     23.27613900	     -7.97370218	      0.12567212	      2.88664527	      3.95490754	     -0.50336955	     -2.43023641	      0.00000000	     -0.00349076	      0.00000000	      0.00000000	      0.00000000	      0.00000000	      0.00000000	      0.00000000	      0.00000000	     -2.87555713	    -15.07907269	      3.09712085	      8.77325589
      0.03333333	     -4.54353707	     -8.74021225	     -8.07520770	     -0.71214822	      1.02924835	      0.32606452	    -18.56652861	      8.69727290	     -4.47751384	     -6.14546059	     -1.00031372	     27.80221773	     42.28574855	     23.34587274	     -7.97614660	      0.16370218	      2.26789951	      3.81008738	     -0.49812455	     -2.52058780	      0.00000000	     -0.00453212	      0.00000000	      0.00000000	      0.00000000	      0.00000000	      0.00000000	      0.00000000	      0.00000000	     -3.33943540	    -15.21897502	      2.94720685	      9.23345278
      0.03750000	     -4.53538496	     -8.76269911	     -8.20283192	     -0.70584636	      1.02810389	      0.32644911	    -18.72210191	      8.60784555	     -4.36121653	     -6.48677317	     -1.12730795	     27.80204941	     42.32726208	     23.31651828	     -7.99006997	      0.23522349	      2.06447303	      3.97431454	     -0.51376383	     -2.58359306	      0.00000000	     -0.00539134	      0.00000000	      0.00000000	      0.00000000	      0.00000000	      0.00000000	      0.00000000	      0.00000000	     -3.80076834	    -15.17179368	      2.85435233	      9.26542746
